<?xml version="1.0" standalone="no"?>
<!DOCTYPE svg PUBLIC "-//W3C//DTD SVG 20010904//EN"
 "http://www.w3.org/TR/2001/REC-SVG-20010904/DTD/svg10.dtd">
<svg version="1.0" xmlns="http://www.w3.org/2000/svg"
 width="400.000000pt" height="133.000000pt" viewBox="0 0 400.000000 133.000000"
 preserveAspectRatio="xMidYMid meet">

<g transform="translate(0.000000,133.000000) scale(0.100000,-0.100000)"
fill="#000000" stroke="none">
<path d="M3006 1145 c-11 -8 -15 -15 -9 -15 7 0 15 5 18 10 3 6 14 10 23 10
27 0 2 -16 -78 -49 -41 -18 -92 -39 -112 -48 -21 -9 -35 -20 -32 -24 3 -5 -2
-6 -11 -3 -9 4 -23 -1 -33 -9 -9 -9 -19 -16 -22 -16 -3 0 -12 -3 -22 -6 -16
-7 -17 -16 -3 -49 5 -11 4 -31 -2 -47 -11 -29 -8 -39 12 -39 6 0 11 16 12 38
1 77 3 92 14 92 6 0 9 -9 6 -20 -3 -11 -1 -20 3 -20 5 0 7 -20 5 -45 -2 -34 1
-45 12 -45 11 0 14 12 12 48 -1 26 -1 60 0 75 2 52 27 7 28 -49 0 -51 7 -74
22 -74 8 0 6 51 -4 138 -4 32 -2 43 8 39 6 -2 12 -8 13 -13 1 -12 18 -127 20
-136 1 -5 2 -12 3 -18 0 -5 6 -10 12 -10 7 0 9 19 4 58 -9 83 -16 126 -22 137
-3 6 4 0 16 -12 15 -16 22 -37 24 -73 1 -27 6 -50 11 -50 4 0 6 -13 4 -28 -3
-22 0 -28 14 -29 15 -2 17 4 13 29 -3 17 -7 34 -9 37 -2 3 -7 24 -10 46 -4 22
-9 55 -12 73 -4 22 -2 32 6 32 7 0 10 -7 6 -15 -3 -8 -2 -15 3 -15 4 0 16 -28
25 -62 14 -55 18 -72 25 -110 0 -5 6 -8 12 -8 7 0 9 11 6 28 -7 34 -33 140
-42 170 -5 13 -3 22 3 22 6 0 17 -19 23 -42 7 -24 16 -47 19 -53 4 -5 13 -32
20 -60 13 -52 25 -73 35 -63 4 3 -6 41 -20 84 -45 133 -45 133 -30 128 11 -5
26 -33 40 -74 0 -3 9 -22 18 -44 9 -21 17 -49 17 -61 0 -19 26 -43 35 -33 2 2
-14 48 -35 103 -22 55 -39 106 -40 113 0 27 25 -12 54 -83 16 -38 34 -76 40
-84 8 -11 8 -15 -2 -19 -16 -5 3 -32 24 -32 17 0 12 21 -21 95 -56 123 -64
145 -55 145 6 0 10 -6 10 -14 0 -8 4 -16 9 -18 11 -4 85 -147 87 -168 1 -8 2
-20 3 -26 1 -7 11 -14 24 -18 14 -4 18 -9 10 -14 -6 -4 -11 -16 -10 -26 2 -18
-10 -19 -263 -22 -288 -3 -489 -10 -496 -17 -6 -6 13 -47 39 -82 21 -29 24
-30 91 -27 49 2 72 -1 77 -10 5 -7 6 -58 4 -113 -5 -90 -4 -98 9 -80 15 19 15
19 16 -7 0 -20 -4 -26 -15 -22 -8 4 -15 1 -15 -5 0 -17 46 -13 64 5 9 8 16 11
16 5 0 -6 4 -11 10 -11 5 0 11 26 13 58 l3 57 4 -60 3 -60 7 65 7 65 3 -65 3
-65 7 65 7 65 1 -65 c2 -46 5 -61 12 -50 6 10 10 11 10 3 0 -7 4 -13 8 -13 5
0 10 26 11 57 3 79 11 80 13 2 l1 -64 7 65 7 65 3 -65 3 -65 7 65 7 65 2 -65
c2 -49 5 -59 11 -40 8 24 8 24 9 3 1 -13 5 -23 10 -23 5 0 16 -3 25 -6 14 -5
16 11 17 137 0 79 3 138 6 132 2 -7 11 -13 19 -13 8 0 14 -4 14 -10 0 -14 47
-12 54 3 5 10 7 10 12 0 6 -14 34 -18 34 -5 0 5 19 15 43 22 67 21 97 39 97
58 0 15 -2 15 -10 2 -7 -11 -10 -4 -10 27 0 23 4 43 8 45 5 2 15 16 23 32 8
16 20 32 27 34 10 3 9 -3 -3 -22 -10 -14 -13 -26 -9 -26 5 0 9 -30 9 -67 0
-63 2 -68 23 -71 12 -2 22 0 21 5 -1 4 0 13 1 18 7 31 4 75 -6 75 -7 0 -14 7
-18 15 -3 8 -1 15 4 15 6 0 10 7 10 16 0 12 5 11 21 -7 l20 -24 -7 25 -7 25
24 -20 c17 -14 15 -10 -5 13 -23 24 -26 32 -13 32 9 0 21 -8 26 -17 9 -16 10
-15 11 5 0 13 -16 42 -35 65 -19 22 -35 47 -35 55 0 7 11 0 25 -16 14 -17 25
-35 25 -41 0 -6 4 -11 9 -11 5 0 16 -16 25 -35 9 -19 22 -35 28 -35 14 0 5 21
-40 88 -52 77 -57 86 -44 79 5 -4 21 -2 34 3 23 10 23 10 1 6 -13 -2 -23 0
-23 6 0 5 -10 6 -21 3 -12 -4 -19 -3 -16 1 3 5 -1 15 -9 22 -12 11 -14 10 -14
-5 0 -15 -2 -15 -15 3 -8 10 -15 14 -15 7 0 -6 -7 -13 -16 -15 -14 -3 -13 -7
5 -30 12 -14 21 -34 21 -45 0 -11 -11 -2 -29 27 -28 44 -28 45 -9 56 18 10 19
12 4 17 -10 4 -15 3 -11 -3 9 -15 -6 -12 -19 4 -14 17 -62 33 -52 17 4 -6 2
-11 -3 -11 -6 0 -11 7 -11 16 0 13 -3 14 -14 5 -10 -8 -20 -8 -37 -1 -23 10
-23 10 -1 6 27 -5 20 9 -8 17 -14 3 -20 0 -20 -11 0 -8 -3 -12 -7 -8 -5 4 -8
13 -8 19 0 18 -47 19 -69 2z m168 -84 c-1 -2 5 -12 15 -23 10 -10 27 -36 37
-56 11 -20 23 -40 27 -43 8 -6 -1 -39 -12 -39 -5 0 -37 62 -84 165 -18 39 -18
40 1 20 11 -11 18 -22 16 -24z m39 33 c-7 -3 3 -25 28 -61 21 -31 39 -66 38
-77 0 -20 -1 -20 -17 3 -29 40 -71 125 -66 133 3 4 11 8 17 7 9 0 9 -2 0 -5z
m-263 -474 c0 -36 -3 -40 -25 -40 -13 0 -29 8 -34 18 -10 16 -10 16 -11 0 0
-12 -8 -18 -25 -18 -22 0 -25 4 -25 40 l0 40 40 0 c22 0 40 5 40 10 0 7 6 7
20 0 15 -8 20 -21 20 -50z m-140 16 c0 -37 -10 -56 -31 -56 -15 0 -19 7 -19
40 0 36 3 40 25 40 20 0 25 -5 25 -24z m127 -138 c-3 -7 -5 -2 -5 12 0 14 2
19 5 13 2 -7 2 -19 0 -25z"/>
<path d="M2930 1110 c-8 -5 -10 -10 -5 -10 6 0 17 5 25 10 8 5 11 10 5 10 -5
0 -17 -5 -25 -10z"/>
<path d="M2830 1070 c-8 -5 -10 -10 -5 -10 6 0 17 5 25 10 8 5 11 10 5 10 -5
0 -17 -5 -25 -10z"/>
<path d="M3435 1030 c3 -5 11 -10 16 -10 6 0 7 5 4 10 -3 6 -11 10 -16 10 -6
0 -7 -4 -4 -10z"/>
<path d="M3390 1021 c0 -5 12 -23 28 -39 15 -16 40 -48 56 -71 46 -69 42 -37
-5 36 -24 37 -48 71 -54 75 -14 10 -25 10 -25 -1z"/>
<path d="M3470 1020 c0 -4 11 -11 25 -14 14 -4 24 -10 22 -14 -2 -7 91 -132
99 -132 13 0 0 29 -26 59 -16 18 -28 37 -25 41 3 4 -6 11 -20 14 -14 4 -22 12
-19 19 2 7 -8 17 -26 24 -16 6 -30 8 -30 3z"/>
<path d="M1885 985 c-5 -22 -9 -45 -10 -51 0 -6 -13 -29 -28 -51 -27 -39 -36
-87 -17 -98 6 -3 10 -17 10 -30 0 -13 7 -31 16 -40 9 -9 14 -25 11 -35 -4 -16
0 -20 18 -20 22 0 47 20 44 36 -1 5 0 12 1 17 7 20 4 35 -12 64 -16 30 -16 32
0 26 15 -6 15 -4 -2 15 -17 20 -18 22 -2 22 21 0 47 -58 40 -91 -4 -16 0 -13
10 10 9 18 13 38 9 45 -4 6 -6 20 -5 31 2 11 -11 36 -28 55 -16 18 -30 45 -31
59 -1 14 -4 37 -8 51 -7 23 -8 22 -16 -15z m15 -216 c0 -5 -9 -9 -20 -9 -22 0
-23 1 -14 24 5 13 9 14 20 5 8 -6 14 -15 14 -20z"/>
<path d="M2693 1010 c-13 -5 -23 -11 -23 -14 0 -7 40 6 46 15 6 10 6 10 -23
-1z"/>
<path d="M3462 991 c7 -12 15 -21 18 -21 3 0 14 -16 24 -35 11 -19 23 -35 28
-35 5 0 7 -4 4 -9 -6 -9 23 -25 31 -17 7 7 -78 116 -99 127 -17 9 -18 8 -6
-10z"/>
<path d="M3545 990 c3 -5 11 -10 16 -10 6 0 7 5 4 10 -3 6 -11 10 -16 10 -6 0
-7 -4 -4 -10z"/>
<path d="M2640 979 c0 -5 5 -7 10 -4 6 3 10 8 10 11 0 2 -4 4 -10 4 -5 0 -10
-5 -10 -11z"/>
<path d="M2673 973 c-8 -3 -9 -12 -3 -29 6 -15 6 -33 0 -48 -6 -18 -5 -28 5
-36 11 -9 14 0 17 51 3 63 1 69 -19 62z"/>
<path d="M3625 960 c4 -7 -3 -8 -20 -4 l-27 7 18 -23 c51 -63 73 -84 74 -71 0
8 -12 28 -27 44 -23 23 -24 27 -8 21 11 -4 28 -17 37 -28 10 -12 22 -27 28
-33 6 -7 16 -13 22 -13 6 0 4 8 -5 18 -21 23 -21 28 -1 36 9 3 12 2 9 -5 -4
-5 3 -19 16 -30 25 -21 44 -25 33 -6 -6 10 -4 10 7 0 7 -7 23 -13 35 -13 17 0
21 4 17 20 -3 11 -12 20 -20 20 -8 0 -12 -4 -8 -9 3 -6 -7 -6 -27 0 -18 5 -34
9 -35 9 -2 0 -3 7 -3 15 0 16 -21 20 -35 6 -6 -5 -22 -1 -40 10 -16 10 -23 19
-15 19 13 0 13 1 0 10 -20 13 -33 13 -25 0z"/>
<path d="M2575 950 c-3 -6 1 -7 9 -4 18 7 21 14 7 14 -6 0 -13 -4 -16 -10z"/>
<path d="M2619 943 c-1 -5 0 -20 1 -35 1 -16 -4 -28 -10 -28 -7 0 -6 -5 2 -14
11 -12 14 -11 20 3 10 25 9 81 -2 81 -5 0 -10 -3 -11 -7z"/>
<path d="M3675 940 c3 -5 11 -10 16 -10 6 0 7 5 4 10 -3 6 -11 10 -16 10 -6 0
-7 -4 -4 -10z"/>
<path d="M2510 920 c-9 -6 -10 -10 -3 -10 6 0 15 5 18 10 8 12 4 12 -15 0z"/>
<path d="M2543 910 c-36 -16 -41 -22 -35 -42 6 -21 7 -21 10 -3 5 22 19 35 41
35 9 0 11 -4 3 -12 -7 -9 -6 -17 3 -25 10 -10 14 -4 17 28 2 21 3 39 3 38 0 0
-19 -9 -42 -19z"/>
<path d="M927 874 c-5 -33 -15 -58 -28 -70 -18 -16 -20 -26 -14 -69 3 -27 14
-58 23 -69 16 -17 16 -19 -1 -30 -50 -30 -50 -29 -51 -129 l-1 -97 -62 0 c-34
0 -68 -3 -77 -6 -21 -8 -21 -53 1 -61 14 -5 13 -8 -6 -15 -17 -6 -22 -15 -19
-37 1 -16 -3 -35 -9 -43 -15 -17 -37 -117 -29 -125 3 -4 6 1 6 10 0 11 8 17
23 16 17 -1 18 -2 4 -6 -9 -2 -15 -9 -12 -14 3 -5 1 -15 -6 -22 -10 -11 -29
-11 -108 0 -52 7 -99 17 -104 22 -4 4 -4 19 2 32 11 31 5 86 -13 114 -8 12
-12 33 -9 48 3 17 1 27 -6 27 -9 0 -9 5 -1 21 7 11 18 18 25 15 21 -8 57 29
53 56 -2 13 -9 22 -16 20 -6 -1 -12 2 -12 8 0 5 7 10 15 10 13 0 13 3 3 20 -7
11 -18 20 -25 20 -7 0 -13 11 -13 24 0 15 -11 33 -29 48 -29 22 -29 25 -18 65
9 36 9 45 -7 62 -10 11 -24 39 -31 63 l-14 43 0 -36 c-1 -20 -10 -48 -21 -62
-12 -15 -20 -40 -20 -62 0 -30 -3 -35 -13 -26 -10 8 -18 7 -32 -3 -14 -10 -15
-15 -5 -21 9 -5 11 -4 6 3 -5 8 0 12 13 12 12 0 21 -6 21 -12 0 -10 2 -10 9 0
6 10 10 10 20 -2 11 -13 9 -21 -11 -45 -12 -17 -31 -33 -40 -36 -10 -4 -18
-14 -17 -23 0 -11 3 -12 6 -4 7 17 33 15 33 -3 0 -7 -8 -19 -17 -25 -12 -7
-14 -13 -7 -16 18 -8 4 -44 -16 -44 -10 0 -25 -3 -34 -6 -13 -5 -16 2 -16 40
0 30 4 46 13 46 9 0 8 3 -2 9 -11 7 -10 11 5 20 18 11 18 12 -2 6 -23 -6 -54
2 -54 15 0 5 17 6 39 3 21 -3 47 -1 57 5 16 9 15 11 -12 10 -17 -1 -36 2 -42
6 -16 10 -60 -14 -65 -35 -6 -22 -27 -26 -27 -5 0 12 -20 26 -37 26 -3 0 -2
-11 1 -25 4 -14 2 -25 -3 -25 -17 0 -21 54 -3 68 14 11 14 12 0 12 -22 0 -16
32 8 41 17 6 17 7 2 14 -9 4 -23 3 -30 -1 -7 -4 -10 -4 -6 1 4 4 -4 16 -17 27
-14 11 -25 27 -25 36 0 9 -5 24 -10 32 -6 10 -9 -120 -10 -362 l0 -378 122 0
c122 0 175 10 126 24 -22 6 -22 7 -4 18 16 9 23 7 42 -15 l23 -27 548 1 c301
0 539 4 528 8 -19 8 -19 8 0 18 11 6 33 13 49 17 15 4 26 9 23 12 -3 3 -42 -6
-87 -20 -76 -23 -87 -24 -171 -14 -75 9 -88 14 -84 27 3 9 1 31 -4 49 -7 22
-6 32 1 32 7 0 7 4 1 12 -6 7 -16 30 -22 51 -7 20 -19 37 -27 37 -12 0 -12 4
-4 20 12 23 5 60 -12 60 -6 0 -8 12 -4 30 3 17 1 30 -4 30 -18 0 -11 52 8 57
10 2 26 18 37 34 13 19 26 28 38 25 9 -2 14 0 11 5 -3 6 -15 9 -27 7 -19 -3
-22 4 -29 51 -9 62 -17 74 -59 91 l-30 13 7 64 c6 58 4 67 -16 88 -12 12 -27
45 -34 71 l-13 49 -6 -51z m-875 -286 c-7 -7 -12 -8 -12 -2 0 14 12 26 19 19
2 -3 -1 -11 -7 -17z m139 -118 c5 0 9 -4 9 -9 0 -4 -11 -6 -25 -3 -14 2 -25 9
-25 14 0 6 7 7 16 4 9 -3 20 -6 25 -6z m704 -29 c-3 -12 -11 -21 -16 -21 -6 0
-8 3 -6 8 2 4 7 16 11 26 9 25 20 13 11 -13z m-395 -12 c0 -5 -4 -9 -10 -9 -5
0 -10 7 -10 16 0 8 5 12 10 9 6 -3 10 -10 10 -16z m-390 1 c0 -5 -9 -10 -21
-10 -11 0 -17 5 -14 10 3 6 13 10 21 10 8 0 14 -4 14 -10z m40 0 c0 -5 -4 -10
-10 -10 -5 0 -10 5 -10 10 0 6 5 10 10 10 6 0 10 -4 10 -10z m40 6 c0 -2 -7
-6 -15 -10 -8 -3 -15 -1 -15 4 0 6 7 10 15 10 8 0 15 -2 15 -4z m-145 -26 c8
-13 -5 -13 -25 0 -13 8 -13 10 2 10 9 0 20 -4 23 -10z m382 -11 c-17 -10 -50
-1 -42 11 2 4 16 5 31 2 21 -4 23 -7 11 -13z m-77 4 c0 -1 -11 -10 -24 -18
-30 -20 -89 -37 -81 -24 4 5 15 9 25 9 10 0 22 5 25 10 3 6 -3 10 -14 10 -12
0 -21 3 -21 8 0 4 20 7 45 8 25 0 45 -1 45 -3z m-170 -18 c0 -8 -4 -15 -10
-15 -5 0 -10 7 -10 15 0 8 5 15 10 15 6 0 10 -7 10 -15z m740 5 c-8 -5 -19
-10 -25 -10 -5 0 -3 5 5 10 8 5 20 10 25 10 6 0 3 -5 -5 -10z m59 -9 c-15 -23
-103 -51 -155 -50 l-39 1 35 8 c19 4 58 18 85 32 63 33 90 36 74 9z m-885 -15
c-4 -18 -1 -27 15 -36 12 -6 21 -7 21 -3 0 9 48 33 67 33 7 0 13 -4 13 -10 0
-5 -7 -10 -15 -10 -20 0 -19 -24 1 -41 15 -12 14 -14 -7 -19 -20 -5 -26 -15
-34 -59 -6 -29 -13 -49 -17 -46 -4 4 -4 13 -1 21 3 8 0 14 -6 14 -6 0 -11 -7
-11 -15 0 -9 -9 -15 -21 -15 -16 0 -20 5 -16 18 21 66 22 62 -12 56 -23 -5
-31 -3 -31 7 0 8 -3 24 -6 37 -5 18 -2 22 15 22 17 0 21 6 21 35 0 25 4 35 15
35 11 0 14 -7 9 -24z m786 10 c0 -2 -7 -7 -16 -10 -8 -3 -12 -2 -9 4 6 10 25
14 25 6z m-829 -29 c-13 -13 -26 -3 -16 12 3 6 11 8 17 5 6 -4 6 -10 -1 -17z
m179 -17 c-8 -5 -22 -10 -30 -10 -13 0 -13 1 0 10 8 5 22 10 30 10 13 0 13 -1
0 -10z m74 2 c3 -5 -1 -9 -9 -9 -8 0 -15 4 -15 9 0 4 4 8 9 8 6 0 12 -4 15 -8z
m646 -29 c-14 -3 -27 -8 -30 -12 -9 -12 -40 -33 -40 -28 0 3 8 13 17 23 17 16
15 17 -34 11 -30 -3 -55 -2 -58 4 -4 5 29 8 82 8 48 -1 77 -4 63 -6z m-614
-25 c4 -7 3 -8 -4 -4 -7 4 -12 1 -12 -7 0 -8 -9 -17 -20 -20 -14 -4 -20 0 -20
12 0 10 3 21 7 24 10 11 41 8 49 -5z m92 -39 c-3 -8 -7 -3 -11 10 -4 17 -3 21
5 13 5 -5 8 -16 6 -23z m525 -12 c54 -6 58 -17 6 -18 -41 -1 -42 -2 -14 -9
l30 -8 -31 -1 c-16 0 -39 6 -50 15 -10 8 -13 12 -5 8 10 -5 11 -1 6 17 -7 20
-6 22 7 12 7 -7 31 -14 51 -16z m-166 -123 c-3 -3 -12 -4 -19 -1 -8 3 -5 6 6
6 11 1 17 -2 13 -5z"/>
<path d="M3760 910 c8 -5 20 -10 25 -10 6 0 3 5 -5 10 -8 5 -19 10 -25 10 -5
0 -3 -5 5 -10z"/>
<path d="M2452 870 c7 -11 18 -20 25 -20 9 0 7 6 -4 20 -10 11 -21 20 -25 20
-5 0 -3 -9 4 -20z"/>
<path d="M2441 824 c0 -11 3 -14 6 -6 3 7 2 16 -1 19 -3 4 -6 -2 -5 -13z"/>
<path d="M3860 830 c0 -5 5 -10 10 -10 6 0 10 5 10 10 0 6 -4 10 -10 10 -5 0
-10 -4 -10 -10z"/>
<path d="M3369 813 c-6 -34 -5 -54 2 -59 5 -3 10 10 10 28 1 26 3 28 6 9 6
-32 29 -56 36 -38 4 9 6 9 6 0 1 -7 8 -13 16 -13 10 0 15 -10 15 -27 0 -21 3
-24 9 -14 5 8 7 20 4 28 -4 10 5 13 38 12 44 -2 186 34 204 52 5 5 -52 9 -152
9 -97 0 -164 4 -168 10 -7 12 -24 13 -26 3z"/>
<path d="M3899 792 c-1 -17 -3 -21 -6 -9 -5 19 -33 24 -33 5 0 -6 3 -8 7 -5 3
4 13 -3 21 -15 14 -19 13 -22 -4 -35 -19 -14 -19 -15 1 -12 11 2 25 0 32 -4 8
-5 8 0 -2 19 -15 30 -10 55 10 48 7 -3 18 3 24 14 9 17 7 19 -19 20 -26 1 -30
-3 -31 -26z"/>
<path d="M3810 769 c0 -5 -4 -7 -10 -4 -5 3 -10 1 -10 -4 0 -6 4 -11 10 -11 5
0 7 -8 4 -17 -5 -17 -5 -17 6 0 6 9 20 17 30 17 10 0 22 5 26 12 4 7 3 8 -4 4
-7 -4 -12 -2 -12 3 0 6 -9 11 -20 11 -11 0 -20 -5 -20 -11z"/>
<path d="M3690 737 c-14 -5 -32 -11 -40 -13 -8 -2 -16 -8 -18 -13 -2 -6 -13
-9 -25 -6 -32 8 -93 -46 -82 -72 8 -17 8 -17 12 0 3 9 11 17 19 17 8 0 14 4
14 9 0 15 52 23 64 10 8 -9 8 -10 -1 -5 -8 4 -13 2 -13 -6 0 -8 6 -20 13 -27
10 -11 10 -13 0 -7 -7 4 -13 2 -13 -4 0 -6 8 -9 18 -6 67 20 92 18 123 -8 17
-14 37 -26 45 -26 18 0 18 -14 -1 -30 -13 -11 -19 -9 -34 9 -19 22 -61 29 -61
11 0 -6 -6 -5 -14 2 -11 10 -11 16 -3 27 7 8 -13 0 -43 -17 -30 -16 -70 -33
-89 -37 -29 -6 -33 -5 -28 9 4 10 3 15 -3 11 -14 -8 -13 -38 2 -53 9 -9 9 -12
0 -12 -7 0 -12 -5 -12 -11 0 -6 9 -9 20 -6 23 6 26 -3 8 -22 -7 -8 -8 -11 -2
-8 6 4 20 0 30 -8 18 -14 18 -14 1 -15 -10 0 -15 -4 -12 -10 9 -14 83 -12 87
2 3 9 6 9 12 0 4 -7 2 -12 -3 -12 -18 0 12 -40 29 -40 23 -1 53 -27 40 -35
-16 -10 -62 4 -77 23 -9 13 -12 13 -13 3 0 -10 -3 -11 -14 -2 -12 10 -14 9
-10 -6 4 -16 -3 -18 -64 -21 -89 -4 -93 -5 -122 -24 -26 -17 -155 -39 -218
-37 -27 1 -14 6 48 18 47 10 126 32 177 49 50 18 99 32 108 32 9 0 14 4 11 8
-10 16 -122 -11 -188 -44 -33 -18 -62 -18 -135 0 -32 8 -72 17 -89 19 -17 3
-41 10 -53 17 -17 9 -26 9 -37 -1 -19 -15 -18 -53 1 -69 9 -7 14 -19 11 -25
-7 -18 135 -25 293 -15 74 5 138 7 142 5 6 -4 103 8 234 28 6 1 9 -6 7 -15 -2
-10 2 -19 8 -19 5 -1 16 -2 23 -3 6 0 13 -13 15 -29 2 -15 8 -27 13 -27 5 0 9
-7 9 -15 0 -17 16 -20 25 -5 5 8 11 8 19 1 7 -6 15 -8 18 -6 3 3 3 -6 1 -19
-3 -14 -14 -28 -24 -31 -15 -5 -16 -10 -7 -24 14 -23 95 -19 113 6 7 9 17 13
23 9 7 -4 12 -1 12 10 0 11 -6 15 -20 11 -13 -3 -20 0 -20 8 0 9 8 12 21 10
13 -3 19 0 16 8 -2 7 -15 11 -28 9 -14 -2 -36 2 -49 7 -22 9 -23 10 -5 12 11
1 24 1 29 0 5 -1 6 5 3 14 -4 8 -2 15 3 15 6 0 10 -9 10 -20 0 -20 0 -20 20
-2 19 17 20 32 21 162 0 96 -4 146 -11 150 -7 4 -11 10 -11 14 2 17 0 19 -9
10 -8 -8 -7 -19 1 -38 10 -21 10 -29 0 -39 -10 -9 -12 -9 -11 3 1 8 2 22 1 30
-1 12 -4 11 -12 -3 -8 -14 -7 -23 5 -36 20 -22 20 -31 1 -31 -8 0 -15 -5 -15
-11 0 -5 -5 -7 -11 -3 -6 3 -9 15 -6 25 7 26 -2 24 -13 -3 -8 -18 -8 -15 -4
13 7 46 -8 57 -36 27 -21 -23 -22 -23 -36 -4 -18 25 -44 29 -44 8 0 -12 -3
-13 -11 -5 -24 24 -3 39 50 38 30 -1 51 3 51 9 0 6 8 1 18 -11 9 -12 22 -19
28 -15 16 11 24 40 12 44 -24 8 3 26 32 22 29 -5 30 -4 30 34 0 29 -5 42 -17
46 -12 5 -14 9 -6 14 7 5 3 11 -12 18 -19 9 -22 9 -18 -2 4 -11 -3 -13 -28 -8
-19 3 -40 7 -46 10 -7 2 -13 -1 -13 -5 0 -15 -73 -7 -78 8 -3 8 0 11 6 7 6 -3
13 -2 16 3 4 5 -2 8 -11 7 -9 -2 -19 -8 -21 -14 -5 -17 -32 -15 -38 3 -4 8
-11 15 -17 15 -7 0 -7 -4 1 -12 17 -17 15 -25 -5 -31 -10 -2 -27 -8 -38 -13
-18 -7 -18 -6 -6 9 7 9 10 17 6 17 -4 0 -2 6 4 14 10 12 8 13 -8 9 -34 -9 -24
14 11 26 24 9 34 8 40 -1 6 -10 8 -9 8 2 0 13 1 13 10 0 5 -8 10 -10 10 -5 -1
6 -6 17 -13 26 -10 13 -18 14 -37 6z m146 -110 c13 -13 -4 -19 -24 -8 -15 8
-21 8 -24 -1 -4 -12 -38 -4 -38 9 0 10 76 10 86 0z m142 -63 c-4 -3 -12 5 -18
18 -12 22 -12 22 6 6 10 -10 15 -20 12 -24z m-113 -4 c-20 -23 -29 -21 -19 4
3 9 13 16 22 16 13 0 12 -3 -3 -20z m-122 -4 c4 -10 1 -13 -9 -9 -7 3 -14 9
-14 14 0 14 17 10 23 -5z m-12 -38 c25 -28 24 -28 -9 -16 -16 6 -29 17 -29 25
0 19 17 16 38 -9z m-12 -69 c-19 -12 -39 -11 -39 2 0 6 7 9 15 5 8 -3 15 -1
15 5 0 6 5 7 11 3 8 -4 7 -9 -2 -15z m75 -8 c2 -3 -8 -6 -24 -6 -16 0 -26 5
-23 11 4 12 40 8 47 -5z m51 -11 c3 -5 1 -10 -4 -10 -6 0 -11 5 -11 10 0 6 2
10 4 10 3 0 8 -4 11 -10z m-59 -124 c-3 -11 -5 -23 -6 -26 -2 -9 -30 34 -30
46 0 7 8 10 20 7 14 -4 18 -12 16 -27z m45 15 c4 7 12 10 16 5 4 -5 3 -11 -4
-13 -7 -2 -9 -11 -6 -19 3 -8 0 -14 -7 -14 -6 0 -9 4 -5 9 3 5 1 12 -5 16 -5
3 -10 12 -9 18 0 8 3 7 6 -2 4 -11 7 -11 14 0z m94 -11 c-7 -23 4 -26 25 -7 8
6 7 3 -3 -9 -9 -11 -17 -26 -17 -32 0 -7 -7 -12 -16 -12 -13 0 -14 3 -5 13 6
8 8 16 5 20 -6 6 4 47 12 47 3 0 2 -9 -1 -20z m-75 -50 c0 -13 -11 -13 -30 0
-12 8 -11 10 8 10 12 0 22 -4 22 -10z m113 -21 c-9 -9 -12 -7 -10 9 1 14 5 18
11 12 7 -7 6 -14 -1 -21z m-88 1 c3 -5 -1 -10 -10 -10 -9 0 -13 5 -10 10 3 6
8 10 10 10 2 0 7 -4 10 -10z m47 -132 c-6 -6 -15 -8 -19 -4 -4 4 -1 11 7 16
19 12 27 3 12 -12z"/>
<path d="M3745 740 c3 -5 8 -10 11 -10 2 0 4 5 4 10 0 6 -5 10 -11 10 -5 0 -7
-4 -4 -10z"/>
<path d="M1670 706 c0 -2 9 -6 20 -9 11 -3 20 -1 20 4 0 5 -9 9 -20 9 -11 0
-20 -2 -20 -4z"/>
<path d="M1571 684 c0 -11 3 -14 6 -6 3 7 2 16 -1 19 -3 4 -6 -2 -5 -13z"/>
<path d="M3166 685 c-11 -8 -17 -15 -13 -15 4 0 3 -9 -3 -21 -19 -35 -32 -158
-23 -216 6 -36 7 -36 63 -22 8 2 14 -1 13 -8 -3 -14 96 -53 135 -53 35 0 104
24 95 33 -3 4 -24 7 -45 7 -27 0 -37 4 -32 11 5 8 -5 10 -32 7 -22 -3 -54 2
-74 10 -19 8 -37 14 -40 14 -3 -1 -20 8 -38 18 -32 19 -36 40 -7 40 9 0 19 18
26 45 11 43 12 44 25 26 8 -11 15 -31 16 -45 1 -14 6 -26 11 -26 5 0 7 -9 4
-20 -7 -26 32 -50 83 -50 30 0 40 4 40 16 0 8 -4 13 -9 10 -5 -4 -7 3 -4 14 3
11 9 20 14 20 5 0 9 9 9 19 0 38 18 30 25 -12 4 -23 7 -45 6 -49 -3 -19 20 -5
41 22 12 17 28 30 35 30 15 0 16 34 4 98 -12 62 -26 71 -46 31 -10 -19 -19
-36 -21 -37 -1 -2 -14 9 -29 25 -23 25 -32 28 -76 24 -38 -2 -49 -7 -45 -17 3
-7 1 -16 -4 -19 -10 -6 -60 15 -60 26 0 5 -10 17 -22 29 -21 20 -21 20 -2 35
10 8 15 14 9 14 -5 0 -19 -6 -29 -14z m169 -245 c3 -5 2 -10 -4 -10 -5 0 -13
5 -16 10 -3 6 -2 10 4 10 5 0 13 -4 16 -10z m38 -67 c-7 -2 -21 -2 -30 0 -10
3 -4 5 12 5 17 0 24 -2 18 -5z"/>
<path d="M1668 673 c7 -3 16 -2 19 1 4 3 -2 6 -13 5 -11 0 -14 -3 -6 -6z"/>
<path d="M1798 654 c-43 -18 -47 -26 -55 -120 -4 -50 -9 -71 -18 -68 -6 3 -18
-3 -26 -13 -7 -10 -10 -15 -5 -11 4 3 24 2 43 -4 32 -9 38 -7 53 12 10 13 22
20 27 17 12 -7 5 -56 -10 -74 -6 -9 -6 -13 2 -13 6 0 11 -7 11 -15 0 -16 17
-19 47 -8 16 6 15 8 -7 15 -16 5 -10 5 17 2 23 -3 50 -1 60 5 16 9 14 11 -12
12 l-30 1 28 8 c15 5 50 25 78 45 31 22 57 34 67 30 12 -5 10 -9 -14 -21 -38
-20 -60 -42 -50 -51 4 -4 21 0 37 10 17 9 37 17 44 17 9 0 12 10 10 31 -3 17
0 40 6 50 7 14 6 19 -4 19 -9 0 -21 24 -32 63 -9 34 -22 65 -29 69 -22 15 -33
8 -30 -18 3 -34 -15 -84 -31 -84 -8 0 -23 14 -35 30 -12 17 -28 30 -36 30 -8
0 -14 7 -14 16 0 12 -4 14 -12 7 -20 -15 -43 -9 -42 10 1 9 1 17 0 16 0 0 -18
-7 -38 -15z m18 -41 c-10 -10 -19 5 -10 18 6 11 8 11 12 0 2 -7 1 -15 -2 -18z
m152 -177 l-23 -18 -3 42 c-4 56 17 72 36 27 12 -30 11 -33 -10 -51z"/>
<path d="M3060 640 c0 -6 11 -10 25 -10 14 0 25 -6 25 -12 0 -9 4 -8 10 2 15
24 12 27 -25 28 -19 1 -35 -3 -35 -8z"/>
<path d="M3557 622 c-22 -24 -21 -31 1 -29 10 0 18 10 18 24 2 28 2 28 -19 5z"/>
<path d="M2160 610 c0 -19 6 -26 20 -27 11 -1 22 3 26 8 3 5 1 8 -5 7 -5 -2
-17 6 -25 17 -15 20 -15 19 -16 -5z"/>
<path d="M2130 610 c-13 -8 -12 -10 3 -10 9 0 17 5 17 10 0 12 -1 12 -20 0z"/>
<path d="M3717 609 c7 -7 15 -10 18 -7 3 3 -2 9 -12 12 -14 6 -15 5 -6 -5z"/>
<path d="M1670 600 c0 -6 7 -10 15 -10 8 0 15 2 15 4 0 2 -7 6 -15 10 -8 3
-15 1 -15 -4z"/>
<path d="M3091 555 c-2 -33 -5 -81 -7 -107 -3 -27 -1 -48 5 -48 13 0 17 45 10
135 -5 79 -5 80 -8 20z"/>
<path d="M1312 594 c-10 -5 -10 -9 0 -22 11 -15 11 -15 -3 -4 -28 21 -63 0
-77 -46 -14 -47 -8 -69 21 -75 22 -4 22 -5 -2 -12 -21 -7 -23 -12 -17 -53 3
-25 6 -51 6 -58 0 -20 81 -52 119 -46 25 3 35 11 43 33 5 16 14 29 19 29 6 0
22 12 36 28 l26 27 -5 -27 c-6 -33 15 -55 61 -64 31 -7 32 -6 26 22 -5 25 -4
26 4 7 5 -12 18 -26 28 -32 10 -6 13 -11 6 -11 -24 0 -44 -32 -38 -59 4 -21 0
-29 -22 -43 -33 -19 -61 -84 -44 -101 14 -14 15 -67 1 -67 -5 0 -10 -4 -10
-10 0 -6 129 -10 368 -9 202 0 361 3 354 6 -6 2 -9 9 -6 15 4 6 -2 8 -16 3
-16 -5 -20 -4 -15 5 4 6 15 10 24 7 10 -2 25 1 35 8 16 12 16 16 -4 55 -12 23
-30 45 -41 47 -10 3 -17 9 -14 13 3 5 -4 11 -15 15 -27 9 -25 24 5 35 14 5 25
17 25 27 0 15 2 15 15 -3 16 -19 16 -19 13 1 -2 13 -12 20 -28 21 -14 1 -38 7
-53 13 -34 13 -40 14 -33 2 8 -12 -44 -21 -116 -21 -51 0 -59 -2 -49 -14 8 -9
8 -16 2 -20 -5 -4 -13 3 -16 15 -5 14 -12 18 -23 14 -10 -4 -24 -7 -32 -8 -8
0 -19 -3 -25 -7 -13 -10 -65 -10 -65 0 0 4 -11 11 -25 14 -14 4 -23 11 -20 16
4 6 73 8 171 6 l165 -4 35 30 c38 33 42 49 18 73 -17 17 -51 12 -69 -9 -5 -7
-37 -18 -70 -26 -33 -8 -74 -19 -91 -26 -31 -13 -140 -22 -149 -12 -3 3 20 8
52 11 32 3 81 15 108 28 28 12 64 26 80 30 l30 7 -30 1 c-16 0 -59 -8 -93 -18
-35 -11 -69 -18 -75 -16 -7 2 -24 6 -39 9 -33 8 -38 36 -6 36 12 0 19 3 15 6
-3 3 -51 5 -106 5 -76 -1 -100 2 -99 11 2 9 -17 14 -69 15 -40 1 -73 -2 -73
-7 0 -6 -11 -5 -27 1 -16 6 -29 10 -31 9 -1 -1 -17 2 -35 6 l-32 8 45 7 c25 4
59 11 75 15 26 6 28 5 18 -8 -11 -13 -3 -15 62 -16 55 -2 75 1 75 10 0 10 2
10 9 0 7 -11 9 -11 14 2 4 11 16 15 37 12 35 -4 36 -1 13 22 -17 17 -20 18
-48 21 -8 0 -15 5 -15 9 0 5 18 7 41 5 25 -2 38 1 34 7 -3 5 -13 10 -21 10 -8
0 -17 7 -21 15 -3 9 -15 15 -27 13 -13 -2 -20 2 -18 10 1 6 -3 12 -8 12 -5 0
-10 -6 -10 -12 0 -9 -4 -8 -10 2 -6 10 -10 11 -10 3 0 -7 -11 -15 -25 -19 -13
-3 -29 -12 -36 -20 -18 -22 -76 -18 -84 7 -6 17 -9 18 -22 7 -15 -12 -15 -11
-2 9 7 12 11 24 8 27 -9 9 -63 16 -77 10z m48 -64 c0 -5 -4 -10 -9 -10 -6 0
-13 5 -16 10 -3 6 1 10 9 10 9 0 16 -4 16 -10z m230 -26 c0 -2 -9 -4 -20 -4
-11 0 -20 4 -20 9 0 5 9 7 20 4 11 -3 20 -7 20 -9z m-92 -40 c-10 -10 -28 6
-28 24 0 15 1 15 17 -1 9 -9 14 -19 11 -23z m169 -200 c-3 -3 -12 -4 -19 -1
-8 3 -5 6 6 6 11 1 17 -2 13 -5z m158 -62 c-3 -3 -11 0 -18 7 -9 10 -8 11 6 5
10 -3 15 -9 12 -12z m128 -20 c20 -17 106 -32 113 -20 4 5 17 7 30 4 16 -4 24
-2 24 6 0 10 3 9 9 -1 5 -7 13 -11 18 -8 5 3 14 -3 21 -14 10 -15 10 -19 0
-17 -8 2 -15 -13 -19 -37 -3 -22 -7 -34 -8 -27 -1 16 -28 16 -34 0 -2 -7 -8
-1 -12 13 -6 24 -12 27 -72 32 -70 7 -98 23 -105 61 -5 26 9 29 35 8z m-254
-14 c-7 -13 -11 -25 -9 -28 2 -3 -5 -6 -16 -8 -16 -3 -17 -1 -4 8 12 9 12 13
2 17 -10 4 -9 8 5 19 27 20 35 17 22 -8z m114 -1 c11 -4 16 -3 12 3 -3 6 1 10
9 10 8 0 18 -4 21 -10 3 -5 2 -10 -3 -10 -5 0 -7 -11 -4 -25 4 -23 2 -25 -34
-25 -22 0 -46 5 -54 10 -11 7 -2 8 28 4 45 -7 55 3 21 24 -12 8 -18 9 -15 4 4
-6 -2 -8 -14 -5 -11 3 -23 10 -27 16 -4 6 0 8 10 4 12 -4 14 -2 10 11 -5 14
-4 15 8 6 8 -6 22 -14 32 -17z"/>
<path d="M1930 174 c0 -12 7 -27 15 -34 23 -19 25 -9 4 25 -17 26 -19 27 -19
9z"/>
<path d="M2013 133 c15 -2 37 -2 50 0 12 2 0 4 -28 4 -27 0 -38 -2 -22 -4z"/>
<path d="M1480 559 c0 -5 5 -7 10 -4 6 3 10 8 10 11 0 2 -4 4 -10 4 -5 0 -10
-5 -10 -11z"/>
<path d="M660 550 c-13 -8 -12 -10 3 -10 9 0 17 5 17 10 0 12 -1 12 -20 0z"/>
<path d="M2334 520 c2 -21 -2 -30 -14 -30 -22 0 -44 -36 -25 -44 8 -3 17 -1
20 4 4 6 21 10 38 10 24 0 28 3 17 10 -8 5 -11 10 -6 10 6 0 1 6 -9 14 -11 8
-16 20 -12 29 3 9 2 19 -2 22 -5 3 -8 -9 -7 -25z"/>
<path d="M2370 537 c8 -7 21 -19 29 -27 11 -13 12 -12 3 6 -7 12 -19 24 -29
28 -16 5 -16 4 -3 -7z"/>
<path d="M3202 520 c0 -19 2 -27 5 -17 2 9 2 25 0 35 -3 9 -5 1 -5 -18z"/>
<path d="M632 502 c-16 -35 -8 -42 49 -42 27 0 49 -4 49 -8 0 -5 -22 -9 -49
-9 -28 0 -57 -5 -65 -12 -21 -17 -53 -6 -37 13 11 13 5 26 -11 26 -5 0 -6 -5
-3 -11 4 -5 -1 -19 -10 -29 -16 -17 -15 -19 4 -30 17 -9 25 -8 37 5 21 20 29
19 46 -6 l14 -21 32 27 c18 15 39 25 47 22 9 -4 12 -1 9 8 -4 8 3 15 18 18
l23 4 -22 2 c-13 0 -23 6 -23 11 0 6 3 9 8 9 19 -3 65 3 54 8 -6 2 -9 10 -5
15 4 7 -2 9 -16 5 -18 -4 -20 -3 -11 8 9 11 7 12 -9 8 -12 -3 -19 -9 -16 -13
2 -4 -5 -16 -16 -26 -18 -16 -19 -16 -13 -1 4 12 1 17 -12 17 -17 0 -17 1 -1
13 15 10 12 12 -21 13 -31 0 -40 -4 -50 -24z"/>
<path d="M1189 525 c-3 -12 -7 -26 -8 -32 -1 -5 -6 -1 -11 7 -5 8 -10 11 -10
5 0 -25 16 -29 36 -8 17 17 19 23 8 27 -8 3 -15 3 -15 1z"/>
<path d="M1700 516 c0 -8 4 -17 9 -20 5 -4 7 3 4 14 -6 23 -13 26 -13 6z"/>
<path d="M557 509 c-23 -13 -13 -29 19 -29 26 0 31 12 11 28 -8 7 -18 7 -30 1z"/>
<path d="M2238 513 c6 -2 12 -11 12 -19 0 -8 5 -14 10 -14 16 0 11 27 -6 34
-9 3 -19 6 -22 5 -4 0 -1 -3 6 -6z"/>
<path d="M2155 489 c-4 -6 -5 -12 -2 -15 2 -3 7 2 10 11 7 17 1 20 -8 4z"/>
<path d="M1685 480 c3 -5 8 -10 11 -10 2 0 4 5 4 10 0 6 -5 10 -11 10 -5 0 -7
-4 -4 -10z"/>
<path d="M1116 455 c4 -8 8 -15 10 -15 2 0 4 7 4 15 0 8 -4 15 -10 15 -5 0 -7
-7 -4 -15z"/>
<path d="M2217 458 c-16 -12 -15 -13 8 -14 15 -1 25 3 25 12 0 17 -11 18 -33
2z"/>
<path d="M2163 444 c0 -8 6 -14 14 -14 7 0 13 4 13 9 0 5 -6 11 -13 14 -8 3
-14 -1 -14 -9z"/>
<path d="M1070 425 c-11 -13 -8 -15 19 -15 18 0 31 -5 31 -12 0 -9 3 -9 9 1
14 22 49 21 55 -2 4 -16 7 -17 19 -6 13 12 12 15 -4 21 -10 4 -19 12 -19 18 0
6 -5 8 -12 4 -20 -13 -80 -16 -73 -4 10 16 -11 12 -25 -5z"/>
<path d="M2156 378 c-8 -30 -7 -38 2 -38 4 0 8 14 9 30 3 36 -2 39 -11 8z"/>
<path d="M2206 387 c6 -18 41 -19 48 -1 4 10 -3 14 -24 14 -20 0 -28 -4 -24
-13z"/>
<path d="M2279 386 c7 -8 24 -17 38 -21 19 -4 23 -9 14 -14 -9 -6 -6 -10 10
-14 26 -7 54 6 63 28 4 13 -1 11 -24 -5 -17 -12 -30 -17 -30 -12 0 6 7 13 16
16 31 12 -5 36 -53 36 -38 0 -44 -2 -34 -14z"/>
<path d="M2252 363 c-6 -3 -9 -9 -6 -15 4 -6 0 -14 -7 -19 -8 -5 -9 -9 -4 -9
6 0 16 4 23 9 17 10 12 40 -6 34z"/>
<path d="M2540 313 c0 -7 -4 -13 -10 -13 -5 0 -10 -4 -10 -10 0 -6 33 -10 79
-10 l78 0 -5 25 c-4 25 -7 26 -68 24 -46 -2 -64 -6 -64 -16z"/>
<path d="M2240 269 c0 -5 5 -7 10 -4 6 3 10 8 10 11 0 2 -4 4 -10 4 -5 0 -10
-5 -10 -11z"/>
<path d="M2838 273 c6 -2 18 -2 25 0 6 3 1 5 -13 5 -14 0 -19 -2 -12 -5z"/>
<path d="M3028 254 c6 -3 12 -12 12 -19 0 -7 6 -16 13 -19 6 -4 2 -4 -10 -2
-31 6 -29 -5 7 -39 43 -41 39 -63 -5 -29 -19 14 -35 22 -35 18 -1 -12 -24 27
-26 44 -2 8 -4 15 -6 15 -2 1 -59 1 -127 -1 -109 -3 -124 -5 -128 -21 -3 -10
-16 -24 -29 -30 -20 -9 -24 -18 -24 -56 0 -42 -2 -45 -27 -45 l-28 -1 30 -13
30 -13 -32 -1 c-23 0 -33 4 -33 14 0 9 -11 14 -30 14 -29 0 -30 1 -30 52 0 67
-7 59 -11 -12 -3 -51 -1 -55 18 -52 12 2 24 -2 28 -8 4 -6 -6 -10 -25 -10 -35
0 -71 -26 -48 -35 7 -3 135 -4 283 -3 246 3 266 4 225 17 -38 11 -42 15 -25
21 12 4 27 15 35 25 12 14 12 18 -1 26 -11 7 -11 9 4 9 16 0 23 -27 18 -67 -1
-8 9 -13 23 -13 13 0 27 -6 30 -12 5 -11 7 -11 12 0 3 6 21 12 40 12 21 0 33
-4 29 -10 -8 -12 -3 -13 28 -1 13 5 30 5 37 1 8 -5 22 -4 33 1 10 6 26 7 35 3
25 -10 192 -13 198 -3 3 5 13 5 23 0 20 -11 60 -9 80 4 9 5 12 4 8 -2 -4 -7
13 -10 46 -10 28 -1 45 1 36 4 -9 2 -19 16 -22 32 -3 15 -16 32 -29 39 -13 6
-17 11 -10 11 6 1 12 6 12 11 0 6 -22 10 -50 10 -41 0 -50 -3 -50 -17 -1 -17
-1 -17 -11 0 -6 9 -12 27 -14 39 -3 11 -7 23 -11 27 -4 3 -4 -2 -1 -11 4 -12
2 -15 -9 -11 -16 6 -18 31 -4 53 8 12 10 12 15 -2 7 -17 64 -42 81 -36 5 2 10
-1 12 -7 2 -5 -7 -13 -20 -17 -17 -4 -11 -6 20 -7 42 -1 43 0 29 20 -13 18
-13 23 8 43 17 17 21 30 18 50 -5 25 -9 27 -36 22 -16 -3 -45 -6 -64 -6 -19 0
-32 -4 -29 -9 4 -5 -4 -7 -16 -3 -21 5 -22 4 -8 -13 14 -17 13 -18 -2 -12 -13
5 -18 1 -18 -13 0 -14 -5 -18 -17 -13 -16 6 -17 5 -3 -13 11 -14 11 -16 0 -7
-7 7 -15 22 -17 33 -2 15 1 18 15 13 14 -5 15 -4 4 8 -11 12 -16 11 -28 -6 -9
-11 -14 -32 -11 -47 2 -16 3 -28 2 -28 -1 0 -16 7 -32 15 -32 16 -113 27 -113
16 0 -3 9 -12 20 -19 17 -10 20 -10 20 3 0 9 6 12 15 8 9 -3 14 -11 12 -17 -2
-6 3 -16 11 -22 9 -6 17 -19 18 -28 3 -20 -41 -23 -49 -3 -4 10 2 13 21 10 24
-4 23 -2 -7 12 -42 19 -41 19 -36 -6 4 -21 4 -21 -17 -3 -12 11 -18 13 -14 6
4 -6 2 -12 -4 -12 -6 0 -8 -5 -5 -10 4 -6 10 -8 14 -6 4 3 8 -2 8 -11 0 -12
-5 -10 -21 8 -20 23 -27 24 -121 23 l-100 -1 95 6 c75 5 95 9 95 21 0 8 -8 16
-17 18 -12 2 -16 -1 -13 -10 5 -11 -8 -14 -62 -12 -83 2 -84 3 -53 16 34 15
43 16 53 3 6 -7 10 -6 14 3 2 6 17 12 32 12 29 0 51 16 51 37 0 7 -9 13 -19
13 -35 0 -34 20 1 21 18 1 -10 5 -62 9 -53 4 -111 10 -130 14 -19 3 -29 3 -22
0z m-66 -83 c3 -17 1 -31 -2 -31 -4 0 -15 -18 -25 -41 l-19 -41 -75 7 c-42 4
-79 12 -83 19 -11 16 -21 93 -14 104 3 5 52 10 109 11 l105 2 4 -30z m88 -51
c13 -8 13 -10 -2 -10 -9 0 -20 5 -23 10 -8 13 5 13 25 0z m385 -31 c-4 -5 -12
-9 -18 -8 -9 0 -8 2 1 6 6 2 9 10 6 15 -4 7 -2 8 5 4 6 -4 9 -12 6 -17z"/>
<path d="M2470 225 c0 -9 4 -14 9 -11 5 4 11 1 13 -5 2 -7 34 -11 88 -10 58 1
86 -3 92 -11 5 -9 8 -8 8 5 0 14 -9 17 -54 17 -30 0 -56 4 -58 9 -1 6 -24 13
-50 16 -40 6 -48 4 -48 -10z"/>
<path d="M3765 180 c-4 -12 -4 -24 -1 -27 3 -4 6 -1 6 5 0 7 7 12 16 12 9 0
14 5 12 12 -7 21 -26 20 -33 -2z"/>
<path d="M3823 163 c-7 -3 -13 -11 -13 -19 0 -16 9 -18 27 -6 15 9 3 31 -14
25z"/>
<path d="M3786 143 c-6 -14 -5 -15 5 -6 7 7 10 15 7 18 -3 3 -9 -2 -12 -12z"/>
<path d="M1285 120 c-3 -5 1 -10 9 -10 9 0 16 5 16 10 0 6 -4 10 -9 10 -6 0
-13 -4 -16 -10z"/>
<path d="M1297 78 c2 -5 -1 -8 -8 -8 -7 0 -10 -2 -8 -4 2 -2 27 2 54 9 l50 14
-46 -2 c-26 -1 -45 -5 -42 -9z"/>
<path d="M2400 40 c-29 -41 -20 -49 9 -9 13 17 21 33 18 35 -3 3 -15 -9 -27
-26z"/>
<path d="M3800 50 c0 -5 5 -10 11 -10 5 0 7 5 4 10 -3 6 -8 10 -11 10 -2 0 -4
-4 -4 -10z"/>
</g>
</svg>
